<mxfile host="app.diagrams.net" modified="2023-11-03T19:39:07.502Z" agent="Mozilla/5.0 (Windows NT 10.0; Win64; x64) AppleWebKit/537.36 (KHTML, like Gecko) Chrome/118.0.0.0 Safari/537.36" etag="JOB4ww8TBETh8ZpMYlp6" version="22.0.8" type="google">
  <diagram name="PÃ¡gina-1" id="u6J_fzuC6Jir3ECY-lMz">
    <mxGraphModel grid="1" page="1" gridSize="10" guides="1" tooltips="1" connect="1" arrows="1" fold="1" pageScale="1" pageWidth="2336" pageHeight="1654" math="0" shadow="0">
      <root>
        <mxCell id="0" />
        <mxCell id="1" parent="0" />
        <mxCell id="H3bkWLS-QM9oanuXePui-1" value="CLIENTE" style="whiteSpace=wrap;html=1;align=center;" vertex="1" parent="1">
          <mxGeometry x="548" y="431" width="100" height="40" as="geometry" />
        </mxCell>
        <mxCell id="H3bkWLS-QM9oanuXePui-2" value="endereco" style="ellipse;whiteSpace=wrap;html=1;align=center;" vertex="1" parent="1">
          <mxGeometry x="548" y="360" width="100" height="40" as="geometry" />
        </mxCell>
        <mxCell id="H3bkWLS-QM9oanuXePui-7" value="bairro" style="ellipse;whiteSpace=wrap;html=1;align=center;" vertex="1" parent="1">
          <mxGeometry x="488" y="280" width="60" height="20" as="geometry" />
        </mxCell>
        <mxCell id="H3bkWLS-QM9oanuXePui-14" value="telefone" style="ellipse;shape=doubleEllipse;margin=3;whiteSpace=wrap;html=1;align=center;" vertex="1" parent="1">
          <mxGeometry x="408" y="431" width="100" height="40" as="geometry" />
        </mxCell>
        <mxCell id="H3bkWLS-QM9oanuXePui-15" value="cep" style="ellipse;whiteSpace=wrap;html=1;align=center;" vertex="1" parent="1">
          <mxGeometry x="448" y="330" width="60" height="20" as="geometry" />
        </mxCell>
        <mxCell id="H3bkWLS-QM9oanuXePui-16" value="numero" style="ellipse;whiteSpace=wrap;html=1;align=center;" vertex="1" parent="1">
          <mxGeometry x="628" y="280" width="60" height="20" as="geometry" />
        </mxCell>
        <mxCell id="H3bkWLS-QM9oanuXePui-17" value="rua" style="ellipse;whiteSpace=wrap;html=1;align=center;" vertex="1" parent="1">
          <mxGeometry x="682" y="330" width="60" height="20" as="geometry" />
        </mxCell>
        <mxCell id="H3bkWLS-QM9oanuXePui-18" value="&lt;u&gt;codigo&lt;/u&gt;" style="ellipse;whiteSpace=wrap;html=1;align=center;" vertex="1" parent="1">
          <mxGeometry x="488" y="511" width="60" height="20" as="geometry" />
        </mxCell>
        <mxCell id="H3bkWLS-QM9oanuXePui-19" value="nome" style="ellipse;whiteSpace=wrap;html=1;align=center;" vertex="1" parent="1">
          <mxGeometry x="568" y="521" width="60" height="20" as="geometry" />
        </mxCell>
        <mxCell id="H3bkWLS-QM9oanuXePui-20" value="cpf" style="ellipse;whiteSpace=wrap;html=1;align=center;" vertex="1" parent="1">
          <mxGeometry x="648" y="511" width="60" height="20" as="geometry" />
        </mxCell>
        <mxCell id="H3bkWLS-QM9oanuXePui-21" value="" style="endArrow=none;html=1;rounded=0;entryX=0;entryY=0.5;entryDx=0;entryDy=0;" edge="1" parent="1" source="H3bkWLS-QM9oanuXePui-14" target="H3bkWLS-QM9oanuXePui-1">
          <mxGeometry relative="1" as="geometry">
            <mxPoint x="518" y="451" as="sourcePoint" />
            <mxPoint x="578" y="451" as="targetPoint" />
          </mxGeometry>
        </mxCell>
        <mxCell id="H3bkWLS-QM9oanuXePui-23" value="" style="endArrow=none;html=1;rounded=0;exitX=0.25;exitY=1;exitDx=0;exitDy=0;" edge="1" parent="1" source="H3bkWLS-QM9oanuXePui-1" target="H3bkWLS-QM9oanuXePui-18">
          <mxGeometry relative="1" as="geometry">
            <mxPoint x="518" y="451" as="sourcePoint" />
            <mxPoint x="678" y="451" as="targetPoint" />
          </mxGeometry>
        </mxCell>
        <mxCell id="H3bkWLS-QM9oanuXePui-24" value="" style="endArrow=none;html=1;rounded=0;exitX=0.5;exitY=0;exitDx=0;exitDy=0;entryX=0.5;entryY=1;entryDx=0;entryDy=0;" edge="1" parent="1" source="H3bkWLS-QM9oanuXePui-19" target="H3bkWLS-QM9oanuXePui-1">
          <mxGeometry relative="1" as="geometry">
            <mxPoint x="518" y="451" as="sourcePoint" />
            <mxPoint x="678" y="451" as="targetPoint" />
          </mxGeometry>
        </mxCell>
        <mxCell id="H3bkWLS-QM9oanuXePui-25" value="" style="endArrow=none;html=1;rounded=0;exitX=0.5;exitY=0;exitDx=0;exitDy=0;entryX=0.75;entryY=1;entryDx=0;entryDy=0;" edge="1" parent="1" source="H3bkWLS-QM9oanuXePui-20" target="H3bkWLS-QM9oanuXePui-1">
          <mxGeometry relative="1" as="geometry">
            <mxPoint x="518" y="451" as="sourcePoint" />
            <mxPoint x="678" y="451" as="targetPoint" />
          </mxGeometry>
        </mxCell>
        <mxCell id="H3bkWLS-QM9oanuXePui-26" value="" style="endArrow=none;html=1;rounded=0;exitX=0.5;exitY=1;exitDx=0;exitDy=0;entryX=0.5;entryY=0;entryDx=0;entryDy=0;" edge="1" parent="1" source="H3bkWLS-QM9oanuXePui-2" target="H3bkWLS-QM9oanuXePui-1">
          <mxGeometry relative="1" as="geometry">
            <mxPoint x="518" y="451" as="sourcePoint" />
            <mxPoint x="678" y="451" as="targetPoint" />
          </mxGeometry>
        </mxCell>
        <mxCell id="H3bkWLS-QM9oanuXePui-27" value="" style="endArrow=none;html=1;rounded=0;exitX=1;exitY=0.5;exitDx=0;exitDy=0;entryX=0;entryY=0.5;entryDx=0;entryDy=0;" edge="1" parent="1" source="H3bkWLS-QM9oanuXePui-15" target="H3bkWLS-QM9oanuXePui-2">
          <mxGeometry relative="1" as="geometry">
            <mxPoint x="518" y="451" as="sourcePoint" />
            <mxPoint x="678" y="451" as="targetPoint" />
          </mxGeometry>
        </mxCell>
        <mxCell id="H3bkWLS-QM9oanuXePui-28" value="" style="endArrow=none;html=1;rounded=0;exitX=0.5;exitY=1;exitDx=0;exitDy=0;entryX=0;entryY=0;entryDx=0;entryDy=0;" edge="1" parent="1" source="H3bkWLS-QM9oanuXePui-7" target="H3bkWLS-QM9oanuXePui-2">
          <mxGeometry relative="1" as="geometry">
            <mxPoint x="518" y="451" as="sourcePoint" />
            <mxPoint x="678" y="451" as="targetPoint" />
          </mxGeometry>
        </mxCell>
        <mxCell id="H3bkWLS-QM9oanuXePui-29" value="" style="endArrow=none;html=1;rounded=0;exitX=1;exitY=0;exitDx=0;exitDy=0;entryX=0.5;entryY=1;entryDx=0;entryDy=0;" edge="1" parent="1" source="H3bkWLS-QM9oanuXePui-2" target="H3bkWLS-QM9oanuXePui-16">
          <mxGeometry relative="1" as="geometry">
            <mxPoint x="518" y="451" as="sourcePoint" />
            <mxPoint x="678" y="451" as="targetPoint" />
          </mxGeometry>
        </mxCell>
        <mxCell id="H3bkWLS-QM9oanuXePui-30" value="" style="endArrow=none;html=1;rounded=0;exitX=1;exitY=0.5;exitDx=0;exitDy=0;entryX=0;entryY=0.5;entryDx=0;entryDy=0;" edge="1" parent="1" source="H3bkWLS-QM9oanuXePui-2" target="H3bkWLS-QM9oanuXePui-17">
          <mxGeometry relative="1" as="geometry">
            <mxPoint x="518" y="451" as="sourcePoint" />
            <mxPoint x="678" y="451" as="targetPoint" />
          </mxGeometry>
        </mxCell>
        <mxCell id="H3bkWLS-QM9oanuXePui-31" value="REALIZA" style="shape=rhombus;perimeter=rhombusPerimeter;whiteSpace=wrap;html=1;align=center;" vertex="1" parent="1">
          <mxGeometry x="818" y="461" width="120" height="60" as="geometry" />
        </mxCell>
        <mxCell id="H3bkWLS-QM9oanuXePui-32" value="" style="endArrow=none;html=1;rounded=0;entryX=0;entryY=0.5;entryDx=0;entryDy=0;exitX=1;exitY=0.5;exitDx=0;exitDy=0;" edge="1" parent="1" source="H3bkWLS-QM9oanuXePui-1" target="H3bkWLS-QM9oanuXePui-31">
          <mxGeometry relative="1" as="geometry">
            <mxPoint x="518" y="451" as="sourcePoint" />
            <mxPoint x="678" y="451" as="targetPoint" />
          </mxGeometry>
        </mxCell>
        <mxCell id="H3bkWLS-QM9oanuXePui-36" value="1" style="edgeLabel;html=1;align=center;verticalAlign=middle;resizable=0;points=[];" connectable="0" vertex="1" parent="H3bkWLS-QM9oanuXePui-32">
          <mxGeometry x="0.0772" y="-3" relative="1" as="geometry">
            <mxPoint x="61" y="12" as="offset" />
          </mxGeometry>
        </mxCell>
        <mxCell id="H3bkWLS-QM9oanuXePui-33" value="COMPRA" style="shape=ext;margin=3;double=1;whiteSpace=wrap;html=1;align=center;" vertex="1" parent="1">
          <mxGeometry x="1108" y="431" width="100" height="40" as="geometry" />
        </mxCell>
        <mxCell id="H3bkWLS-QM9oanuXePui-35" value="" style="endArrow=none;html=1;rounded=0;exitX=1;exitY=0.5;exitDx=0;exitDy=0;entryX=0;entryY=0.5;entryDx=0;entryDy=0;" edge="1" parent="1" source="H3bkWLS-QM9oanuXePui-31" target="H3bkWLS-QM9oanuXePui-33">
          <mxGeometry relative="1" as="geometry">
            <mxPoint x="798" y="451" as="sourcePoint" />
            <mxPoint x="958" y="451" as="targetPoint" />
          </mxGeometry>
        </mxCell>
        <mxCell id="H3bkWLS-QM9oanuXePui-37" value="N" style="edgeLabel;html=1;align=center;verticalAlign=middle;resizable=0;points=[];" connectable="0" vertex="1" parent="H3bkWLS-QM9oanuXePui-35">
          <mxGeometry x="0.8868" y="3" relative="1" as="geometry">
            <mxPoint x="-10" y="1" as="offset" />
          </mxGeometry>
        </mxCell>
        <mxCell id="H3bkWLS-QM9oanuXePui-38" value="&lt;u&gt;codigo&lt;/u&gt;" style="ellipse;whiteSpace=wrap;html=1;align=center;" vertex="1" parent="1">
          <mxGeometry x="1068" y="360" width="60" height="20" as="geometry" />
        </mxCell>
        <mxCell id="H3bkWLS-QM9oanuXePui-39" value="" style="endArrow=none;html=1;rounded=0;exitX=0.5;exitY=1;exitDx=0;exitDy=0;entryX=0.25;entryY=0;entryDx=0;entryDy=0;" edge="1" parent="1" source="H3bkWLS-QM9oanuXePui-38" target="H3bkWLS-QM9oanuXePui-33">
          <mxGeometry relative="1" as="geometry">
            <mxPoint x="798" y="451" as="sourcePoint" />
            <mxPoint x="958" y="451" as="targetPoint" />
          </mxGeometry>
        </mxCell>
        <mxCell id="H3bkWLS-QM9oanuXePui-40" value="quantidade_produtos" style="ellipse;whiteSpace=wrap;html=1;align=center;dashed=1;" vertex="1" parent="1">
          <mxGeometry x="1168" y="350" width="130" height="40" as="geometry" />
        </mxCell>
        <mxCell id="H3bkWLS-QM9oanuXePui-41" value="" style="endArrow=none;html=1;rounded=0;exitX=0.75;exitY=0;exitDx=0;exitDy=0;entryX=0.5;entryY=1;entryDx=0;entryDy=0;" edge="1" parent="1" source="H3bkWLS-QM9oanuXePui-33" target="H3bkWLS-QM9oanuXePui-40">
          <mxGeometry relative="1" as="geometry">
            <mxPoint x="798" y="451" as="sourcePoint" />
            <mxPoint x="958" y="451" as="targetPoint" />
          </mxGeometry>
        </mxCell>
        <mxCell id="H3bkWLS-QM9oanuXePui-42" value="CONTEM&lt;br&gt;produto compra" style="shape=associativeEntity;whiteSpace=wrap;html=1;align=center;" vertex="1" parent="1">
          <mxGeometry x="1088" y="561" width="140" height="60" as="geometry" />
        </mxCell>
        <mxCell id="H3bkWLS-QM9oanuXePui-43" value="" style="endArrow=none;html=1;rounded=0;entryX=0.5;entryY=0;entryDx=0;entryDy=0;exitX=0.5;exitY=1;exitDx=0;exitDy=0;" edge="1" parent="1" source="H3bkWLS-QM9oanuXePui-33" target="H3bkWLS-QM9oanuXePui-42">
          <mxGeometry relative="1" as="geometry">
            <mxPoint x="798" y="451" as="sourcePoint" />
            <mxPoint x="958" y="451" as="targetPoint" />
          </mxGeometry>
        </mxCell>
        <mxCell id="H3bkWLS-QM9oanuXePui-44" value="N" style="edgeLabel;html=1;align=center;verticalAlign=middle;resizable=0;points=[];" connectable="0" vertex="1" parent="H3bkWLS-QM9oanuXePui-43">
          <mxGeometry x="0.7067" relative="1" as="geometry">
            <mxPoint y="-6" as="offset" />
          </mxGeometry>
        </mxCell>
        <mxCell id="H3bkWLS-QM9oanuXePui-45" value="&lt;u&gt;codigo_produto_compra&lt;/u&gt;" style="ellipse;whiteSpace=wrap;html=1;align=center;" vertex="1" parent="1">
          <mxGeometry x="1279" y="611" width="150" height="30" as="geometry" />
        </mxCell>
        <mxCell id="H3bkWLS-QM9oanuXePui-46" value="codigo_produto" style="ellipse;whiteSpace=wrap;html=1;align=center;" vertex="1" parent="1">
          <mxGeometry x="1279" y="571" width="150" height="30" as="geometry" />
        </mxCell>
        <mxCell id="H3bkWLS-QM9oanuXePui-47" value="codigo_compra" style="ellipse;whiteSpace=wrap;html=1;align=center;" vertex="1" parent="1">
          <mxGeometry x="1279" y="531" width="150" height="30" as="geometry" />
        </mxCell>
        <mxCell id="H3bkWLS-QM9oanuXePui-48" value="" style="endArrow=none;html=1;rounded=0;exitX=1;exitY=0.25;exitDx=0;exitDy=0;entryX=0;entryY=0.5;entryDx=0;entryDy=0;" edge="1" parent="1" source="H3bkWLS-QM9oanuXePui-42" target="H3bkWLS-QM9oanuXePui-47">
          <mxGeometry relative="1" as="geometry">
            <mxPoint x="828" y="451" as="sourcePoint" />
            <mxPoint x="988" y="451" as="targetPoint" />
          </mxGeometry>
        </mxCell>
        <mxCell id="H3bkWLS-QM9oanuXePui-49" value="" style="endArrow=none;html=1;rounded=0;exitX=1;exitY=0.5;exitDx=0;exitDy=0;entryX=0;entryY=0.5;entryDx=0;entryDy=0;" edge="1" parent="1" source="H3bkWLS-QM9oanuXePui-42" target="H3bkWLS-QM9oanuXePui-46">
          <mxGeometry relative="1" as="geometry">
            <mxPoint x="828" y="451" as="sourcePoint" />
            <mxPoint x="988" y="451" as="targetPoint" />
          </mxGeometry>
        </mxCell>
        <mxCell id="H3bkWLS-QM9oanuXePui-50" value="" style="endArrow=none;html=1;rounded=0;exitX=1;exitY=0.75;exitDx=0;exitDy=0;entryX=0;entryY=0.5;entryDx=0;entryDy=0;" edge="1" parent="1" source="H3bkWLS-QM9oanuXePui-42" target="H3bkWLS-QM9oanuXePui-45">
          <mxGeometry relative="1" as="geometry">
            <mxPoint x="828" y="451" as="sourcePoint" />
            <mxPoint x="988" y="451" as="targetPoint" />
          </mxGeometry>
        </mxCell>
        <mxCell id="H3bkWLS-QM9oanuXePui-51" value="PRODUTO" style="whiteSpace=wrap;html=1;align=center;" vertex="1" parent="1">
          <mxGeometry x="1268" y="761" width="100" height="40" as="geometry" />
        </mxCell>
        <mxCell id="H3bkWLS-QM9oanuXePui-52" value="" style="endArrow=none;html=1;rounded=0;exitX=0.5;exitY=0;exitDx=0;exitDy=0;entryX=0.5;entryY=1;entryDx=0;entryDy=0;" edge="1" parent="1" source="H3bkWLS-QM9oanuXePui-51" target="H3bkWLS-QM9oanuXePui-42">
          <mxGeometry relative="1" as="geometry">
            <mxPoint x="1068" y="611" as="sourcePoint" />
            <mxPoint x="1228" y="611" as="targetPoint" />
          </mxGeometry>
        </mxCell>
        <mxCell id="H3bkWLS-QM9oanuXePui-53" value="N" style="edgeLabel;html=1;align=center;verticalAlign=middle;resizable=0;points=[];" connectable="0" vertex="1" parent="H3bkWLS-QM9oanuXePui-52">
          <mxGeometry x="-0.8262" y="-1" relative="1" as="geometry">
            <mxPoint y="-1" as="offset" />
          </mxGeometry>
        </mxCell>
        <mxCell id="H3bkWLS-QM9oanuXePui-54" value="&lt;u&gt;codigo&lt;/u&gt;" style="ellipse;whiteSpace=wrap;html=1;align=center;" vertex="1" parent="1">
          <mxGeometry x="1228" y="831" width="60" height="20" as="geometry" />
        </mxCell>
        <mxCell id="H3bkWLS-QM9oanuXePui-55" value="descricao" style="ellipse;whiteSpace=wrap;html=1;align=center;fontStyle=0" vertex="1" parent="1">
          <mxGeometry x="1308" y="831" width="60" height="20" as="geometry" />
        </mxCell>
        <mxCell id="H3bkWLS-QM9oanuXePui-56" value="&lt;span&gt;valor&lt;/span&gt;" style="ellipse;whiteSpace=wrap;html=1;align=center;fontStyle=0" vertex="1" parent="1">
          <mxGeometry x="1388" y="831" width="60" height="20" as="geometry" />
        </mxCell>
        <mxCell id="H3bkWLS-QM9oanuXePui-57" value="" style="endArrow=none;html=1;rounded=0;exitX=0.5;exitY=0;exitDx=0;exitDy=0;entryX=0.25;entryY=1;entryDx=0;entryDy=0;" edge="1" parent="1" source="H3bkWLS-QM9oanuXePui-54" target="H3bkWLS-QM9oanuXePui-51">
          <mxGeometry relative="1" as="geometry">
            <mxPoint x="1158" y="351" as="sourcePoint" />
            <mxPoint x="1228" y="611" as="targetPoint" />
          </mxGeometry>
        </mxCell>
        <mxCell id="H3bkWLS-QM9oanuXePui-58" value="" style="endArrow=none;html=1;rounded=0;exitX=0.5;exitY=0;exitDx=0;exitDy=0;entryX=0.5;entryY=1;entryDx=0;entryDy=0;" edge="1" parent="1" source="H3bkWLS-QM9oanuXePui-55" target="H3bkWLS-QM9oanuXePui-51">
          <mxGeometry relative="1" as="geometry">
            <mxPoint x="1068" y="611" as="sourcePoint" />
            <mxPoint x="1228" y="611" as="targetPoint" />
          </mxGeometry>
        </mxCell>
        <mxCell id="H3bkWLS-QM9oanuXePui-59" value="" style="endArrow=none;html=1;rounded=0;exitX=0.5;exitY=0;exitDx=0;exitDy=0;entryX=0.75;entryY=1;entryDx=0;entryDy=0;" edge="1" parent="1" source="H3bkWLS-QM9oanuXePui-56" target="H3bkWLS-QM9oanuXePui-51">
          <mxGeometry relative="1" as="geometry">
            <mxPoint x="1068" y="611" as="sourcePoint" />
            <mxPoint x="1228" y="611" as="targetPoint" />
          </mxGeometry>
        </mxCell>
        <mxCell id="H3bkWLS-QM9oanuXePui-60" value="FORNECE" style="shape=rhombus;perimeter=rhombusPerimeter;whiteSpace=wrap;html=1;align=center;" vertex="1" parent="1">
          <mxGeometry x="1015" y="751" width="120" height="60" as="geometry" />
        </mxCell>
        <mxCell id="H3bkWLS-QM9oanuXePui-61" value="FORNECEDOR" style="whiteSpace=wrap;html=1;align=center;" vertex="1" parent="1">
          <mxGeometry x="778" y="761" width="100" height="40" as="geometry" />
        </mxCell>
        <mxCell id="H3bkWLS-QM9oanuXePui-62" value="" style="endArrow=none;html=1;rounded=0;exitX=1;exitY=0.5;exitDx=0;exitDy=0;entryX=0;entryY=0.5;entryDx=0;entryDy=0;" edge="1" parent="1" source="H3bkWLS-QM9oanuXePui-61" target="H3bkWLS-QM9oanuXePui-60">
          <mxGeometry relative="1" as="geometry">
            <mxPoint x="1068" y="611" as="sourcePoint" />
            <mxPoint x="1228" y="611" as="targetPoint" />
          </mxGeometry>
        </mxCell>
        <mxCell id="H3bkWLS-QM9oanuXePui-64" value="1" style="edgeLabel;html=1;align=center;verticalAlign=middle;resizable=0;points=[];" connectable="0" vertex="1" parent="H3bkWLS-QM9oanuXePui-62">
          <mxGeometry x="-0.8248" y="2" relative="1" as="geometry">
            <mxPoint x="108" y="2" as="offset" />
          </mxGeometry>
        </mxCell>
        <mxCell id="H3bkWLS-QM9oanuXePui-63" value="" style="endArrow=none;html=1;rounded=0;exitX=1;exitY=0.5;exitDx=0;exitDy=0;entryX=0;entryY=0.5;entryDx=0;entryDy=0;" edge="1" parent="1" source="H3bkWLS-QM9oanuXePui-60" target="H3bkWLS-QM9oanuXePui-51">
          <mxGeometry relative="1" as="geometry">
            <mxPoint x="1068" y="611" as="sourcePoint" />
            <mxPoint x="1228" y="611" as="targetPoint" />
          </mxGeometry>
        </mxCell>
        <mxCell id="H3bkWLS-QM9oanuXePui-65" value="N" style="edgeLabel;html=1;align=center;verticalAlign=middle;resizable=0;points=[];" connectable="0" vertex="1" parent="H3bkWLS-QM9oanuXePui-63">
          <mxGeometry x="0.7895" y="-1" relative="1" as="geometry">
            <mxPoint as="offset" />
          </mxGeometry>
        </mxCell>
        <mxCell id="H3bkWLS-QM9oanuXePui-66" value="&lt;u&gt;codigo&lt;/u&gt;" style="ellipse;whiteSpace=wrap;html=1;align=center;" vertex="1" parent="1">
          <mxGeometry x="718" y="831" width="60" height="20" as="geometry" />
        </mxCell>
        <mxCell id="H3bkWLS-QM9oanuXePui-68" value="nome" style="ellipse;whiteSpace=wrap;html=1;align=center;fontStyle=0" vertex="1" parent="1">
          <mxGeometry x="878" y="831" width="60" height="20" as="geometry" />
        </mxCell>
        <mxCell id="H3bkWLS-QM9oanuXePui-69" value="telefone" style="ellipse;shape=doubleEllipse;margin=3;whiteSpace=wrap;html=1;align=center;" vertex="1" parent="1">
          <mxGeometry x="788" y="826" width="80" height="30" as="geometry" />
        </mxCell>
        <mxCell id="H3bkWLS-QM9oanuXePui-70" value="" style="endArrow=none;html=1;rounded=0;exitX=0.5;exitY=0;exitDx=0;exitDy=0;entryX=0.32;entryY=0.97;entryDx=0;entryDy=0;entryPerimeter=0;" edge="1" parent="1" source="H3bkWLS-QM9oanuXePui-66" target="H3bkWLS-QM9oanuXePui-61">
          <mxGeometry relative="1" as="geometry">
            <mxPoint x="1068" y="611" as="sourcePoint" />
            <mxPoint x="1228" y="611" as="targetPoint" />
          </mxGeometry>
        </mxCell>
        <mxCell id="H3bkWLS-QM9oanuXePui-71" value="" style="endArrow=none;html=1;rounded=0;exitX=0.5;exitY=0;exitDx=0;exitDy=0;entryX=0.5;entryY=1;entryDx=0;entryDy=0;" edge="1" parent="1" source="H3bkWLS-QM9oanuXePui-69" target="H3bkWLS-QM9oanuXePui-61">
          <mxGeometry relative="1" as="geometry">
            <mxPoint x="1068" y="611" as="sourcePoint" />
            <mxPoint x="1228" y="611" as="targetPoint" />
          </mxGeometry>
        </mxCell>
        <mxCell id="H3bkWLS-QM9oanuXePui-72" value="" style="endArrow=none;html=1;rounded=0;exitX=0.5;exitY=0;exitDx=0;exitDy=0;entryX=0.75;entryY=1;entryDx=0;entryDy=0;" edge="1" parent="1" source="H3bkWLS-QM9oanuXePui-68" target="H3bkWLS-QM9oanuXePui-61">
          <mxGeometry relative="1" as="geometry">
            <mxPoint x="1068" y="611" as="sourcePoint" />
            <mxPoint x="1228" y="611" as="targetPoint" />
          </mxGeometry>
        </mxCell>
        <mxCell id="H3bkWLS-QM9oanuXePui-73" value="REGISTRA" style="shape=rhombus;perimeter=rhombusPerimeter;whiteSpace=wrap;html=1;align=center;" vertex="1" parent="1">
          <mxGeometry x="1388" y="451" width="120" height="60" as="geometry" />
        </mxCell>
        <mxCell id="H3bkWLS-QM9oanuXePui-74" value="" style="endArrow=none;html=1;rounded=0;exitX=1;exitY=0.5;exitDx=0;exitDy=0;entryX=0;entryY=0.5;entryDx=0;entryDy=0;" edge="1" parent="1" source="H3bkWLS-QM9oanuXePui-33" target="H3bkWLS-QM9oanuXePui-73">
          <mxGeometry relative="1" as="geometry">
            <mxPoint x="1348" y="491" as="sourcePoint" />
            <mxPoint x="1508" y="491" as="targetPoint" />
          </mxGeometry>
        </mxCell>
        <mxCell id="H3bkWLS-QM9oanuXePui-75" value="1" style="edgeLabel;html=1;align=center;verticalAlign=middle;resizable=0;points=[];" connectable="0" vertex="1" parent="H3bkWLS-QM9oanuXePui-74">
          <mxGeometry x="-0.8328" relative="1" as="geometry">
            <mxPoint x="148" y="23" as="offset" />
          </mxGeometry>
        </mxCell>
        <mxCell id="H3bkWLS-QM9oanuXePui-76" value="FUNCIONARIO" style="whiteSpace=wrap;html=1;align=center;" vertex="1" parent="1">
          <mxGeometry x="1648" y="431" width="100" height="40" as="geometry" />
        </mxCell>
        <mxCell id="H3bkWLS-QM9oanuXePui-77" value="" style="endArrow=none;html=1;rounded=0;exitX=0;exitY=0.5;exitDx=0;exitDy=0;entryX=1;entryY=0.5;entryDx=0;entryDy=0;" edge="1" parent="1" source="H3bkWLS-QM9oanuXePui-76" target="H3bkWLS-QM9oanuXePui-73">
          <mxGeometry relative="1" as="geometry">
            <mxPoint x="1348" y="491" as="sourcePoint" />
            <mxPoint x="1508" y="491" as="targetPoint" />
          </mxGeometry>
        </mxCell>
        <mxCell id="H3bkWLS-QM9oanuXePui-79" value="1" style="edgeLabel;html=1;align=center;verticalAlign=middle;resizable=0;points=[];" connectable="0" vertex="1" parent="H3bkWLS-QM9oanuXePui-77">
          <mxGeometry x="-0.7703" relative="1" as="geometry">
            <mxPoint as="offset" />
          </mxGeometry>
        </mxCell>
        <mxCell id="H3bkWLS-QM9oanuXePui-78" value="" style="endArrow=none;html=1;rounded=0;exitX=1;exitY=0.5;exitDx=0;exitDy=0;" edge="1" parent="1" source="H3bkWLS-QM9oanuXePui-73">
          <mxGeometry relative="1" as="geometry">
            <mxPoint x="1348" y="491" as="sourcePoint" />
            <mxPoint x="1508" y="481" as="targetPoint" />
          </mxGeometry>
        </mxCell>
        <mxCell id="H3bkWLS-QM9oanuXePui-81" value="&lt;u&gt;codigo&lt;/u&gt;" style="ellipse;whiteSpace=wrap;html=1;align=center;" vertex="1" parent="1">
          <mxGeometry x="1658" y="350" width="60" height="20" as="geometry" />
        </mxCell>
        <mxCell id="H3bkWLS-QM9oanuXePui-82" value="nome" style="ellipse;whiteSpace=wrap;html=1;align=center;fontStyle=0" vertex="1" parent="1">
          <mxGeometry x="1738" y="350" width="60" height="20" as="geometry" />
        </mxCell>
        <mxCell id="H3bkWLS-QM9oanuXePui-83" value="telefone" style="ellipse;shape=doubleEllipse;margin=3;whiteSpace=wrap;html=1;align=center;" vertex="1" parent="1">
          <mxGeometry x="1568" y="366" width="80" height="30" as="geometry" />
        </mxCell>
        <mxCell id="H3bkWLS-QM9oanuXePui-85" value="cpf" style="ellipse;whiteSpace=wrap;html=1;align=center;fontStyle=0" vertex="1" parent="1">
          <mxGeometry x="1818" y="369" width="60" height="21" as="geometry" />
        </mxCell>
        <mxCell id="H3bkWLS-QM9oanuXePui-86" value="PERTENCE" style="shape=rhombus;perimeter=rhombusPerimeter;whiteSpace=wrap;html=1;align=center;" vertex="1" parent="1">
          <mxGeometry x="1808" y="541" width="120" height="60" as="geometry" />
        </mxCell>
        <mxCell id="H3bkWLS-QM9oanuXePui-87" value="DEPARTAMENTO" style="whiteSpace=wrap;html=1;align=center;" vertex="1" parent="1">
          <mxGeometry x="1648" y="751" width="100" height="40" as="geometry" />
        </mxCell>
        <mxCell id="H3bkWLS-QM9oanuXePui-88" value="&lt;u&gt;codigo&lt;/u&gt;" style="ellipse;whiteSpace=wrap;html=1;align=center;" vertex="1" parent="1">
          <mxGeometry x="1628" y="831" width="60" height="20" as="geometry" />
        </mxCell>
        <mxCell id="H3bkWLS-QM9oanuXePui-89" value="descricao" style="ellipse;whiteSpace=wrap;html=1;align=center;fontStyle=0" vertex="1" parent="1">
          <mxGeometry x="1708" y="831" width="60" height="20" as="geometry" />
        </mxCell>
        <mxCell id="H3bkWLS-QM9oanuXePui-90" value="" style="endArrow=none;html=1;rounded=0;exitX=0.5;exitY=0;exitDx=0;exitDy=0;entryX=0.5;entryY=1;entryDx=0;entryDy=0;" edge="1" parent="1" source="H3bkWLS-QM9oanuXePui-88" target="H3bkWLS-QM9oanuXePui-87">
          <mxGeometry relative="1" as="geometry">
            <mxPoint x="1548" y="681" as="sourcePoint" />
            <mxPoint x="1708" y="681" as="targetPoint" />
          </mxGeometry>
        </mxCell>
        <mxCell id="H3bkWLS-QM9oanuXePui-91" value="" style="endArrow=none;html=1;rounded=0;exitX=0.5;exitY=0;exitDx=0;exitDy=0;entryX=0.5;entryY=1;entryDx=0;entryDy=0;" edge="1" parent="1" source="H3bkWLS-QM9oanuXePui-89" target="H3bkWLS-QM9oanuXePui-87">
          <mxGeometry relative="1" as="geometry">
            <mxPoint x="1548" y="681" as="sourcePoint" />
            <mxPoint x="1708" y="681" as="targetPoint" />
          </mxGeometry>
        </mxCell>
        <mxCell id="H3bkWLS-QM9oanuXePui-92" value="" style="endArrow=none;html=1;rounded=0;exitX=0.75;exitY=1;exitDx=0;exitDy=0;entryX=0.5;entryY=0;entryDx=0;entryDy=0;" edge="1" parent="1" source="H3bkWLS-QM9oanuXePui-76" target="H3bkWLS-QM9oanuXePui-86">
          <mxGeometry relative="1" as="geometry">
            <mxPoint x="1548" y="681" as="sourcePoint" />
            <mxPoint x="1708" y="681" as="targetPoint" />
          </mxGeometry>
        </mxCell>
        <mxCell id="H3bkWLS-QM9oanuXePui-94" value="N" style="edgeLabel;html=1;align=center;verticalAlign=middle;resizable=0;points=[];" connectable="0" vertex="1" parent="H3bkWLS-QM9oanuXePui-92">
          <mxGeometry x="0.8135" y="1" relative="1" as="geometry">
            <mxPoint as="offset" />
          </mxGeometry>
        </mxCell>
        <mxCell id="H3bkWLS-QM9oanuXePui-93" value="" style="endArrow=none;html=1;rounded=0;exitX=0.5;exitY=1;exitDx=0;exitDy=0;entryX=0.5;entryY=0;entryDx=0;entryDy=0;" edge="1" parent="1" source="H3bkWLS-QM9oanuXePui-86" target="H3bkWLS-QM9oanuXePui-87">
          <mxGeometry relative="1" as="geometry">
            <mxPoint x="1548" y="681" as="sourcePoint" />
            <mxPoint x="1708" y="681" as="targetPoint" />
          </mxGeometry>
        </mxCell>
        <mxCell id="H3bkWLS-QM9oanuXePui-95" value="1" style="edgeLabel;html=1;align=center;verticalAlign=middle;resizable=0;points=[];" connectable="0" vertex="1" parent="H3bkWLS-QM9oanuXePui-93">
          <mxGeometry x="0.8455" y="1" relative="1" as="geometry">
            <mxPoint as="offset" />
          </mxGeometry>
        </mxCell>
        <mxCell id="H3bkWLS-QM9oanuXePui-96" value="" style="endArrow=none;html=1;rounded=0;exitX=0.5;exitY=1;exitDx=0;exitDy=0;entryX=0.25;entryY=0;entryDx=0;entryDy=0;" edge="1" parent="1" source="H3bkWLS-QM9oanuXePui-83" target="H3bkWLS-QM9oanuXePui-76">
          <mxGeometry relative="1" as="geometry">
            <mxPoint x="1548" y="561" as="sourcePoint" />
            <mxPoint x="1708" y="561" as="targetPoint" />
          </mxGeometry>
        </mxCell>
        <mxCell id="H3bkWLS-QM9oanuXePui-97" value="" style="endArrow=none;html=1;rounded=0;exitX=0.5;exitY=1;exitDx=0;exitDy=0;" edge="1" parent="1" source="H3bkWLS-QM9oanuXePui-81">
          <mxGeometry relative="1" as="geometry">
            <mxPoint x="1548" y="561" as="sourcePoint" />
            <mxPoint x="1698" y="431" as="targetPoint" />
          </mxGeometry>
        </mxCell>
        <mxCell id="H3bkWLS-QM9oanuXePui-98" value="" style="endArrow=none;html=1;rounded=0;exitX=0.5;exitY=1;exitDx=0;exitDy=0;entryX=0.5;entryY=0;entryDx=0;entryDy=0;" edge="1" parent="1" source="H3bkWLS-QM9oanuXePui-82" target="H3bkWLS-QM9oanuXePui-76">
          <mxGeometry relative="1" as="geometry">
            <mxPoint x="1548" y="561" as="sourcePoint" />
            <mxPoint x="1708" y="561" as="targetPoint" />
          </mxGeometry>
        </mxCell>
        <mxCell id="H3bkWLS-QM9oanuXePui-99" value="" style="endArrow=none;html=1;rounded=0;exitX=0.75;exitY=0;exitDx=0;exitDy=0;entryX=0.5;entryY=1;entryDx=0;entryDy=0;" edge="1" parent="1" source="H3bkWLS-QM9oanuXePui-76" target="H3bkWLS-QM9oanuXePui-85">
          <mxGeometry relative="1" as="geometry">
            <mxPoint x="1548" y="561" as="sourcePoint" />
            <mxPoint x="1708" y="561" as="targetPoint" />
          </mxGeometry>
        </mxCell>
      </root>
    </mxGraphModel>
  </diagram>
</mxfile>
